<mxfile host="app.diagrams.net" agent="Mozilla/5.0 (Windows NT 10.0; Win64; x64) AppleWebKit/537.36 (KHTML, like Gecko) Chrome/136.0.0.0 Safari/537.36 Edg/136.0.0.0" version="27.0.6">
  <diagram name="Página-1" id="BEi66ECzKyhAUNNsX62u">
    <mxGraphModel dx="1691" dy="492" grid="1" gridSize="10" guides="1" tooltips="1" connect="1" arrows="1" fold="1" page="1" pageScale="1" pageWidth="827" pageHeight="1169" math="0" shadow="0">
      <root>
        <mxCell id="0" />
        <mxCell id="1" parent="0" />
        <mxCell id="V5dWXNmP0o6A_gL5wJaM-1" value="AuNaC" style="shape=umlFrame;whiteSpace=wrap;html=1;pointerEvents=0;recursiveResize=0;container=1;collapsible=0;width=160;" vertex="1" parent="1">
          <mxGeometry x="-30" y="40" width="810" height="380" as="geometry" />
        </mxCell>
        <mxCell id="V5dWXNmP0o6A_gL5wJaM-14" style="rounded=0;orthogonalLoop=1;jettySize=auto;html=1;exitX=0.5;exitY=0.5;exitDx=0;exitDy=0;exitPerimeter=0;entryX=0;entryY=0.5;entryDx=0;entryDy=0;endArrow=none;startFill=0;" edge="1" parent="V5dWXNmP0o6A_gL5wJaM-1" source="V5dWXNmP0o6A_gL5wJaM-3" target="V5dWXNmP0o6A_gL5wJaM-13">
          <mxGeometry relative="1" as="geometry" />
        </mxCell>
        <mxCell id="V5dWXNmP0o6A_gL5wJaM-3" value="&lt;font style=&quot;color: light-dark(rgb(0, 0, 0), rgb(255, 255, 255));&quot;&gt;Usuário&lt;/font&gt;" style="shape=umlActor;verticalLabelPosition=bottom;verticalAlign=top;html=1;fillColor=#1ba1e2;strokeColor=#006EAF;fontColor=#ffffff;" vertex="1" parent="V5dWXNmP0o6A_gL5wJaM-1">
          <mxGeometry x="40" y="70" width="50" height="90" as="geometry" />
        </mxCell>
        <mxCell id="V5dWXNmP0o6A_gL5wJaM-8" value="Realiza Cadastro" style="ellipse;whiteSpace=wrap;html=1;fillColor=#e6d0de;strokeColor=#996185;gradientColor=#d5739d;" vertex="1" parent="V5dWXNmP0o6A_gL5wJaM-1">
          <mxGeometry x="230" y="20" width="140" height="70" as="geometry" />
        </mxCell>
        <mxCell id="V5dWXNmP0o6A_gL5wJaM-10" style="rounded=0;orthogonalLoop=1;jettySize=auto;html=1;exitX=0.5;exitY=0.5;exitDx=0;exitDy=0;exitPerimeter=0;entryX=0;entryY=0.5;entryDx=0;entryDy=0;endArrow=none;startFill=0;" edge="1" parent="V5dWXNmP0o6A_gL5wJaM-1" source="V5dWXNmP0o6A_gL5wJaM-3" target="V5dWXNmP0o6A_gL5wJaM-8">
          <mxGeometry relative="1" as="geometry" />
        </mxCell>
        <mxCell id="V5dWXNmP0o6A_gL5wJaM-11" value="Armazenamento dos dados" style="ellipse;whiteSpace=wrap;html=1;fillColor=#fad9d5;strokeColor=#ae4132;" vertex="1" parent="V5dWXNmP0o6A_gL5wJaM-1">
          <mxGeometry x="490" y="30" width="140" height="70" as="geometry" />
        </mxCell>
        <mxCell id="V5dWXNmP0o6A_gL5wJaM-12" value="&amp;lt;&amp;lt;include&amp;gt;&amp;gt;" style="html=1;verticalAlign=bottom;labelBackgroundColor=none;endArrow=open;endFill=0;dashed=1;rounded=0;entryX=0;entryY=0.5;entryDx=0;entryDy=0;exitX=1;exitY=0.5;exitDx=0;exitDy=0;" edge="1" parent="V5dWXNmP0o6A_gL5wJaM-1" source="V5dWXNmP0o6A_gL5wJaM-8" target="V5dWXNmP0o6A_gL5wJaM-11">
          <mxGeometry width="160" relative="1" as="geometry">
            <mxPoint x="290" y="180" as="sourcePoint" />
            <mxPoint x="450" y="180" as="targetPoint" />
          </mxGeometry>
        </mxCell>
        <mxCell id="V5dWXNmP0o6A_gL5wJaM-13" value="Realiza Login" style="ellipse;whiteSpace=wrap;html=1;fillColor=#e6d0de;strokeColor=#996185;gradientColor=#d5739d;" vertex="1" parent="V5dWXNmP0o6A_gL5wJaM-1">
          <mxGeometry x="220" y="140" width="140" height="70" as="geometry" />
        </mxCell>
        <mxCell id="V5dWXNmP0o6A_gL5wJaM-15" value="Consulta de dados" style="ellipse;whiteSpace=wrap;html=1;fillColor=#fad9d5;strokeColor=#ae4132;" vertex="1" parent="V5dWXNmP0o6A_gL5wJaM-1">
          <mxGeometry x="490" y="170" width="140" height="70" as="geometry" />
        </mxCell>
        <mxCell id="V5dWXNmP0o6A_gL5wJaM-16" value="&amp;lt;&amp;lt;include&amp;gt;&amp;gt;" style="html=1;verticalAlign=bottom;labelBackgroundColor=none;endArrow=open;endFill=0;dashed=1;rounded=0;entryX=0;entryY=0.5;entryDx=0;entryDy=0;exitX=0.993;exitY=0.629;exitDx=0;exitDy=0;exitPerimeter=0;" edge="1" parent="V5dWXNmP0o6A_gL5wJaM-1" source="V5dWXNmP0o6A_gL5wJaM-13" target="V5dWXNmP0o6A_gL5wJaM-15">
          <mxGeometry width="160" relative="1" as="geometry">
            <mxPoint x="290" y="180" as="sourcePoint" />
            <mxPoint x="450" y="180" as="targetPoint" />
          </mxGeometry>
        </mxCell>
        <mxCell id="V5dWXNmP0o6A_gL5wJaM-17" value="&amp;lt;&amp;lt;extend&amp;gt;&amp;gt;" style="html=1;verticalAlign=bottom;labelBackgroundColor=none;endArrow=open;endFill=0;dashed=1;rounded=0;entryX=0.5;entryY=1;entryDx=0;entryDy=0;" edge="1" parent="V5dWXNmP0o6A_gL5wJaM-1" source="V5dWXNmP0o6A_gL5wJaM-15" target="V5dWXNmP0o6A_gL5wJaM-11">
          <mxGeometry width="160" relative="1" as="geometry">
            <mxPoint x="290" y="180" as="sourcePoint" />
            <mxPoint x="450" y="180" as="targetPoint" />
          </mxGeometry>
        </mxCell>
        <mxCell id="V5dWXNmP0o6A_gL5wJaM-18" value="Cadastro Realizado" style="ellipse;whiteSpace=wrap;html=1;fillColor=#e6d0de;strokeColor=#996185;gradientColor=#d5739d;" vertex="1" parent="V5dWXNmP0o6A_gL5wJaM-1">
          <mxGeometry x="660" y="100" width="140" height="70" as="geometry" />
        </mxCell>
        <mxCell id="V5dWXNmP0o6A_gL5wJaM-19" style="rounded=0;orthogonalLoop=1;jettySize=auto;html=1;exitX=1;exitY=0.5;exitDx=0;exitDy=0;entryX=0.214;entryY=0.071;entryDx=0;entryDy=0;entryPerimeter=0;endArrow=none;startFill=0;" edge="1" parent="V5dWXNmP0o6A_gL5wJaM-1" source="V5dWXNmP0o6A_gL5wJaM-11" target="V5dWXNmP0o6A_gL5wJaM-18">
          <mxGeometry relative="1" as="geometry" />
        </mxCell>
        <mxCell id="V5dWXNmP0o6A_gL5wJaM-23" style="rounded=0;orthogonalLoop=1;jettySize=auto;html=1;exitX=0.25;exitY=0.1;exitDx=0;exitDy=0;exitPerimeter=0;entryX=1;entryY=1;entryDx=0;entryDy=0;endArrow=none;startFill=0;" edge="1" parent="V5dWXNmP0o6A_gL5wJaM-1" source="V5dWXNmP0o6A_gL5wJaM-21" target="V5dWXNmP0o6A_gL5wJaM-11">
          <mxGeometry relative="1" as="geometry" />
        </mxCell>
        <mxCell id="V5dWXNmP0o6A_gL5wJaM-21" value="&lt;font style=&quot;color: light-dark(rgb(0, 0, 0), rgb(255, 255, 255));&quot;&gt;AuNaC&lt;/font&gt;" style="shape=umlActor;verticalLabelPosition=bottom;verticalAlign=top;html=1;fillColor=#d5e8d4;strokeColor=#82b366;gradientColor=#97d077;" vertex="1" parent="V5dWXNmP0o6A_gL5wJaM-1">
          <mxGeometry x="740" y="260" width="50" height="90" as="geometry" />
        </mxCell>
        <mxCell id="V5dWXNmP0o6A_gL5wJaM-22" style="rounded=0;orthogonalLoop=1;jettySize=auto;html=1;exitX=0.5;exitY=0;exitDx=0;exitDy=0;exitPerimeter=0;entryX=0.664;entryY=1;entryDx=0;entryDy=0;entryPerimeter=0;endArrow=none;startFill=0;" edge="1" parent="V5dWXNmP0o6A_gL5wJaM-1" source="V5dWXNmP0o6A_gL5wJaM-21" target="V5dWXNmP0o6A_gL5wJaM-18">
          <mxGeometry relative="1" as="geometry" />
        </mxCell>
      </root>
    </mxGraphModel>
  </diagram>
</mxfile>
